<svg viewBox="0 0 1024 1024" xmlns="http://www.w3.org/2000/svg" width="48" height="48">
    <path d="M362.4 48s84.8 23.2 145.6 88.8c1.6-38.4 19.2-80.8 19.2-80.8s32.8 53.6 44 92c21.6-21.6 60-34.4 60-34.4l-44.8 100H444L362.4 48z" fill="#F4F4F4"/>
    <path d="M594.4 225.6H436.8L340 29.6l25.6 7.2c3.2.8 73.6 20.8 132.8 75.2 5.6-31.2 16.8-58.4 17.6-60l8.8-21.6 12 20c.8 1.6 25.6 41.6 40 77.6 22.4-16 48.8-25.6 50.4-25.6l26.4-8.8-59.2 132zm-142.4-24h127.2l28.8-64c-9.6 4.8-20 12-28 19.2l-14.4 13.6-5.6-19.2c-6.4-20.8-20-48-30.4-66.4-4.8 14.4-8.8 34.4-9.6 52.8l-.8 28.8-19.2-20.8c-36.8-40-84-64-112.8-76l64.8 132z"/>
    <path d="M715.2 443.2a144 144 0 1 0 288 0 144 144 0 1 0-288 0z" fill="#F4F4F4"/>
    <path d="M859.2 607.2c-90.4 0-164-73.6-164-164s73.6-164 164-164 164 73.6 164 164-73.6 164-164 164zm0-288c-68 0-124 56-124 124s56 124 124 124 124-56 124-124-56-124-124-124z"/>
    <path d="M23.19999999999999 443.2a144 144 0 1 0 288 0 144 144 0 1 0-288 0z" fill="#F4F4F4"/>
    <path d="M167.2 607.2c-90.4 0-164-73.6-164-164s73.6-164 164-164 164 73.6 164 164-73.6 164-164 164zm0-288c-68 0-124 56-124 124s56 124 124 124 124-56 124-124-55.2-124-124-124z"/>
    <path d="M128 576a384 384 0 1 0 768 0 384 384 0 1 0-768 0z" fill="#000000"/>
    <path d="M512 980c-222.4 0-404-181.6-404-404s181.6-404 404-404 404 181.6 404 404-181.6 404-404 404zm0-768c-200.8 0-364 163.2-364 364s163.2 364 364 364 364-163.2 364-364-163.2-364-364-364z"/>
    <path d="M800 497.6c0-86.4-70.4-156.8-156.8-156.8-54.4 0-102.4 28-131.2 70.4-28-42.4-76-70.4-131.2-70.4C294.4 340 224 410.4 224 497.6c0 76 54.4 139.2 125.6 153.6-7.2 19.2-11.2 40-11.2 61.6 0 96 78.4 174.4 174.4 174.4S688 808.8 688 712.8c0-21.6-4-42.4-11.2-61.6 70.4-16 123.2-78.4 123.2-153.6z" fill="#F4F4F4"/>
    <path d="M512.8 907.2c-107.2 0-194.4-87.2-194.4-194.4 0-16 2.4-32 5.6-47.2-71.2-24-120.8-91.2-120.8-168C204 400 283.2 320 380.8 320c50.4 0 97.6 21.6 131.2 57.6 33.6-36.8 80.8-57.6 131.2-57.6 97.6 0 176.8 79.2 176.8 176.8 0 75.2-48.8 142.4-118.4 167.2 4 16 6.4 32 6.4 48 0 108-87.2 195.2-195.2 195.2zM380.8 360C305.6 360 244 421.6 244 496.8c0 64.8 46.4 121.6 109.6 134.4l23.2 4.8-8 22.4c-6.4 17.6-10.4 36-10.4 54.4 0 85.6 69.6 154.4 154.4 154.4 85.6 0 154.4-69.6 154.4-154.4 0-18.4-3.2-36.8-10.4-54.4l-8-21.6 22.4-4.8c62.4-13.6 108-69.6 108-133.6 0-75.2-61.6-136.8-136.8-136.8-46.4 0-88.8 23.2-114.4 61.6l-16 23.2-16.8-24.8c-25.6-38.4-68-61.6-114.4-61.6z"/>
    <path d="M707.2 518.4c0 35.2-30.4 64-68 64s-68-28.8-68-64h136z" fill="#FFF"/>
    <path d="M639.2 594.4c-44 0-80-34.4-80-76v-12h160v12c0 42.4-36 76-80 76zm-54.4-64c5.6 23.2 28 40 54.4 40s48.8-16.8 54.4-40H584.8z"/>
    <path d="M616.8 537.6a24 24 0 1 0 48 0 24 24 0 1 0-48 0zM558.352 505.952l151.232-73.168 10.448 21.608L568.8 527.56z"/>
    <path d="M332 518.4c0 35.2 30.4 64 68 64s68-28.8 68-64H332z" fill="#FFF"/>
    <path d="M400 594.4c-44 0-80-34.4-80-76v-12h160v12c0 42.4-36 76-80 76zm-54.4-64c5.6 23.2 28 40 54.4 40s48.8-16.8 54.4-40H345.6z"/>
    <path d="M374.4 537.6a24 24 0 1 0 48 0 24 24 0 1 0-48 0zM318.424 454.576l10.44-21.608 151.256 73.12-10.448 21.6zM498.4 672.8L471.2 720c-3.2 5.6.8 12 7.2 12h68c6.4 0 10.4-6.4 7.2-12l-27.2-47.2c-6.4-10.4-22.4-10.4-28 0z"/>
    <path d="M500 698.4h24v92h-24z"/>
    <path d="M512 811.2c-48.8 0-76-45.6-77.6-48-3.2-5.6-1.6-12.8 4-16.8 5.6-3.2 12.8-1.6 16.8 4 0 .8 21.6 36 56.8 36 35.2 0 57.6-36 57.6-36 3.2-5.6 10.4-7.2 16.8-4 5.6 3.2 7.2 10.4 4 16.8-1.6 1.6-29.6 48-78.4 48z"/>
</svg>